<mxfile host="app.diagrams.net" modified="2022-04-21T10:41:56.226Z" agent="5.0 (Windows NT 10.0; WOW64) AppleWebKit/537.36 (KHTML, like Gecko) Chrome/70.0.3538.25 Safari/537.36 Core/1.70.3884.400 QQBrowser/10.8.4560.400" etag="XhxXqhVNm7BTR7s_ms2t" version="17.4.6" type="github">
  <diagram id="txYS68oM8L8IoYxhN3mP" name="第 1 页">
    <mxGraphModel dx="1673" dy="1048" grid="1" gridSize="10" guides="1" tooltips="1" connect="1" arrows="1" fold="1" page="1" pageScale="1" pageWidth="5000" pageHeight="5000" math="0" shadow="0">
      <root>
        <mxCell id="0" />
        <mxCell id="1" parent="0" />
        <mxCell id="KtS-W3OxPsB-stWvo-86-1" value="CrouchDown&lt;br&gt;下蹲过程" style="rounded=0;whiteSpace=wrap;html=1;" parent="1" vertex="1">
          <mxGeometry x="510" y="80" width="120" height="60" as="geometry" />
        </mxCell>
        <mxCell id="KtS-W3OxPsB-stWvo-86-177" value="" style="group" parent="1" vertex="1" connectable="0">
          <mxGeometry x="420" y="250" width="650" height="600" as="geometry" />
        </mxCell>
        <mxCell id="KtS-W3OxPsB-stWvo-86-2" value="" style="rounded=0;whiteSpace=wrap;html=1;" parent="KtS-W3OxPsB-stWvo-86-177" vertex="1">
          <mxGeometry width="650" height="600" as="geometry" />
        </mxCell>
        <mxCell id="KtS-W3OxPsB-stWvo-86-179" value="&lt;span style=&quot;font-size: 10px&quot;&gt;TrainerWithinSight&lt;/span&gt;&lt;br&gt;&lt;span style=&quot;font-size: 10px&quot;&gt;发现目标&lt;/span&gt;" style="ellipse;whiteSpace=wrap;html=1;fontSize=10;" parent="KtS-W3OxPsB-stWvo-86-177" vertex="1">
          <mxGeometry x="50" y="120" width="140" height="80" as="geometry" />
        </mxCell>
        <mxCell id="Dw9Zfhu1xi2oYvi9SeaP-1" value="&lt;span style=&quot;font-size: 10px&quot;&gt;TrainerViewAngle&lt;br&gt;是否被被训练者视野看到&lt;br&gt;&lt;/span&gt;" style="ellipse;whiteSpace=wrap;html=1;fontSize=10;" vertex="1" parent="KtS-W3OxPsB-stWvo-86-177">
          <mxGeometry x="50" y="200" width="140" height="80" as="geometry" />
        </mxCell>
        <mxCell id="Dw9Zfhu1xi2oYvi9SeaP-3" value="&lt;span style=&quot;font-size: 10px&quot;&gt;TrainerDistance&lt;/span&gt;&lt;br&gt;听附近脚步声" style="ellipse;whiteSpace=wrap;html=1;fontSize=10;" vertex="1" parent="KtS-W3OxPsB-stWvo-86-177">
          <mxGeometry x="50" y="290" width="140" height="80" as="geometry" />
        </mxCell>
        <mxCell id="Dw9Zfhu1xi2oYvi9SeaP-4" value="&lt;span style=&quot;font-size: 10px&quot;&gt;LastState&lt;br&gt;&lt;/span&gt;上一个状态" style="ellipse;whiteSpace=wrap;html=1;fontSize=10;" vertex="1" parent="KtS-W3OxPsB-stWvo-86-177">
          <mxGeometry x="210" y="120" width="140" height="80" as="geometry" />
        </mxCell>
        <mxCell id="Dw9Zfhu1xi2oYvi9SeaP-5" value="&lt;span style=&quot;font-size: 10px&quot;&gt;JudgeCoverType&lt;br&gt;判断当前掩体类型&lt;br&gt;&lt;/span&gt;" style="ellipse;whiteSpace=wrap;html=1;fontSize=10;" vertex="1" parent="KtS-W3OxPsB-stWvo-86-177">
          <mxGeometry x="370" y="120" width="140" height="80" as="geometry" />
        </mxCell>
        <mxCell id="Dw9Zfhu1xi2oYvi9SeaP-6" value="&lt;span style=&quot;font-size: 10px&quot;&gt;JudgeCoverNull&lt;br&gt;&lt;/span&gt;判断当前是否在掩体" style="ellipse;whiteSpace=wrap;html=1;fontSize=10;" vertex="1" parent="KtS-W3OxPsB-stWvo-86-177">
          <mxGeometry x="370" y="200" width="140" height="80" as="geometry" />
        </mxCell>
        <mxCell id="Dw9Zfhu1xi2oYvi9SeaP-7" value="&lt;span style=&quot;font-size: 10px&quot;&gt;Random&lt;br&gt;随机概率&lt;br&gt;&lt;/span&gt;" style="ellipse;whiteSpace=wrap;html=1;fontSize=10;" vertex="1" parent="KtS-W3OxPsB-stWvo-86-177">
          <mxGeometry x="210" y="200" width="140" height="80" as="geometry" />
        </mxCell>
        <mxCell id="Dw9Zfhu1xi2oYvi9SeaP-8" value="&lt;span style=&quot;font-size: 10px&quot;&gt;ReachTimer&lt;br&gt;&lt;/span&gt;间隔时间" style="ellipse;whiteSpace=wrap;html=1;fontSize=10;" vertex="1" parent="KtS-W3OxPsB-stWvo-86-177">
          <mxGeometry x="210" y="280" width="140" height="80" as="geometry" />
        </mxCell>
        <mxCell id="Dw9Zfhu1xi2oYvi9SeaP-9" value="&lt;span style=&quot;font-size: 10px&quot;&gt;ReachTarget&lt;br&gt;到达要移动的目标点&lt;br&gt;&lt;/span&gt;" style="ellipse;whiteSpace=wrap;html=1;fontSize=10;" vertex="1" parent="KtS-W3OxPsB-stWvo-86-177">
          <mxGeometry x="370" y="280" width="140" height="80" as="geometry" />
        </mxCell>
        <mxCell id="KtS-W3OxPsB-stWvo-86-176" value="Triggers" style="shape=process;whiteSpace=wrap;html=1;backgroundOutline=1;fontSize=18;" parent="KtS-W3OxPsB-stWvo-86-177" vertex="1">
          <mxGeometry x="250" width="120" height="60" as="geometry" />
        </mxCell>
      </root>
    </mxGraphModel>
  </diagram>
</mxfile>
